<svg xmlns="http://www.w3.org/2000/svg" version="1.1" xmlns:xlink="http://www.w3.org/1999/xlink" xmlns:svgjs="http://svgjs.dev/svgjs" width="1500" height="1500" viewBox="0 0 1500 1500"><rect width="1500" height="1500" fill="#ffffff"></rect><g transform="matrix(0.6666666666666666,0,0,0.6666666666666666,249.39393939393938,666.8687911048877)"><svg viewBox="0 0 396 66" data-background-color="#ffffff" preserveAspectRatio="xMidYMid meet" height="250" width="1500" xmlns="http://www.w3.org/2000/svg" xmlns:xlink="http://www.w3.org/1999/xlink"><g id="tight-bounds" transform="matrix(1,0,0,1,0.2400000000000091,-0.08004127753551415)"><svg viewBox="0 0 395.52 66.16008255507103" height="66.16008255507103" width="395.52"><g><svg viewBox="0 0 509.70462462394147 85.260163945746" height="66.16008255507103" width="395.52"><g transform="matrix(1,0,0,1,0,11.783423526510486)"><svg viewBox="0 0 395.52 61.69331689272503" height="61.69331689272503" width="395.52"><g id="textblocktransform"><svg viewBox="0 0 395.52 61.69331689272503" height="61.69331689272503" width="395.52" id="textblock"><g><svg viewBox="0 0 395.52 61.69331689272503" height="61.69331689272503" width="395.52"><g transform="matrix(1,0,0,1,0,0)"><svg width="395.52" viewBox="2.9 -37.1 244.03 37.95" height="61.69331689272503" data-palette-color="#1e88e5"><g class="wordmark-text-0" data-fill-palette-color="primary" id="text-0"><path d="M15.85 0.6L15.85 0.6Q15.85 0.6 15.1 0.5 14.35 0.4 13.2 0.3 12.05 0.2 10.83 0.1 9.6 0 8.65 0L8.65 0Q7.4 0 6.08 0.15 4.75 0.3 3.83 0.45 2.9 0.6 2.9 0.6L2.9 0.6 3.2-1.7Q5.55-2.15 6.33-3.03 7.1-3.9 7.1-6L7.1-6 7.15-27Q7.15-28.6 6.8-29.15 6.45-29.7 5.3-29.7L5.3-29.7Q4.85-29.7 4.23-29.65 3.6-29.6 3.6-29.6L3.6-29.6 3.5-29.8 3.85-32Q3.85-32 4.4-31.98 4.95-31.95 5.78-31.93 6.6-31.9 7.5-31.88 8.4-31.85 9.1-31.85L9.1-31.85Q9.95-31.85 11.23-31.88 12.5-31.9 13.75-31.95 15-32 15.85-32.02 16.7-32.05 16.7-32.05L16.7-32.05Q21.6-32.05 25.3-30.18 29-28.3 31.08-24.93 33.15-21.55 33.15-17.1L33.15-17.1Q33.15-13.35 31.83-10.15 30.5-6.95 28.13-4.53 25.75-2.1 22.63-0.75 19.5 0.6 15.85 0.6ZM13.25-29.6L13.25-29.6Q12.2-29.6 11.85-29.4 11.5-29.2 11.45-28.5L11.45-28.5Q11.1-19.85 10.9-14.05 10.7-8.25 10.7-6.55L10.7-6.55Q10.7-4.75 11.23-3.75 11.75-2.75 13.13-2.35 14.5-1.95 17-1.95L17-1.95Q22.4-1.95 25.5-5.68 28.6-9.4 28.6-15.9L28.6-15.9Q28.6-20.3 26.83-23.35 25.05-26.4 21.63-28 18.2-29.6 13.25-29.6ZM47.45 0.6L47.45 0.6Q44.3 0.6 41.95-0.8 39.6-2.2 38.27-4.67 36.95-7.15 36.95-10.45L36.95-10.45Q36.95-13 37.82-15.3 38.7-17.6 40.25-19.38 41.8-21.15 43.77-22.18 45.75-23.2 48-23.2L48-23.2Q55.45-23.2 55.45-15.95L55.45-15.95Q55.45-15.3 55.35-14.6 55.25-13.9 55.15-13.5L55.15-13.5 54.5-12.9 40.7-12.9Q40.65-8.45 42.32-5.88 44-3.3 47.05-2.88 50.1-2.45 54.25-4.35L54.25-4.35 54.55-4.25 55.1-2.8Q54.1-2.1 52.72-1.3 51.35-0.5 49.95 0.05 48.55 0.6 47.45 0.6ZM40.9-14.75L40.9-14.75 49.95-15.2Q50.7-15.3 50.95-15.55 51.2-15.8 51.2-16.55L51.2-16.55Q51.2-18.55 50.12-19.6 49.05-20.65 47.05-20.65L47.05-20.65Q44.75-20.65 43.05-19.07 41.35-17.5 40.9-14.75ZM69.45 0L66.64 0.85Q66.64 0.85 66.3-0.25 65.95-1.35 65.39-3.15 64.84-4.95 64.14-7.1 63.45-9.25 62.77-11.43 62.09-13.6 61.5-15.43 60.9-17.25 60.55-18.3L60.55-18.3Q59.7-20.7 57.15-20.8L57.15-20.8 57.05-21 57.34-22.65Q57.34-22.65 58.15-22.65 58.95-22.65 59.95-22.63 60.95-22.6 61.5-22.6L61.5-22.6Q63.05-22.6 64.39-22.7 65.75-22.8 66.62-22.88 67.5-22.95 67.5-22.95L67.5-22.95 67.59-22.7 67.3-21.15Q65.59-21.1 64.97-20.83 64.34-20.55 64.34-19.85L64.34-19.85Q64.34-19.5 64.64-18.23 64.95-16.95 65.45-15.18 65.95-13.4 66.47-11.53 67-9.65 67.5-8 68-6.35 68.3-5.33 68.59-4.3 68.59-4.3L68.59-4.3 68.8-4.3Q70.65-8.9 71.97-12.1 73.3-15.3 74-17.15 74.7-19 74.7-19.6L74.7-19.6Q74.7-20.3 74.22-20.55 73.75-20.8 72.55-20.8L72.55-20.8 70.65-20.8 70.45-21.1 70.7-22.65Q70.7-22.65 71.52-22.65 72.34-22.65 73.59-22.63 74.84-22.6 76.05-22.6L76.05-22.6Q76.95-22.6 77.9-22.63 78.84-22.65 79.5-22.65 80.15-22.65 80.15-22.65L80.15-22.65 79.8-20.8Q78.75-20.65 78.15-19.95 77.55-19.25 76.59-17.05L76.59-17.05 69.45 0ZM88.34 0.6L88.34 0.6Q86.54 0.6 85.19 0.33 83.84 0.05 83.12-0.2 82.39-0.45 82.39-0.45L82.39-0.45 82.24-0.8Q82.34-1.35 82.47-2.63 82.59-3.9 82.72-5.3 82.84-6.7 82.84-7.5L82.84-7.5 84.59-7.75Q84.59-4.45 85.69-3.1 86.79-1.75 89.44-1.75L89.44-1.75Q91.34-1.75 92.64-2.6 93.94-3.45 93.94-4.7L93.94-4.7Q93.94-5.55 93.44-6.25 92.94-6.95 91.69-7.8 90.44-8.65 88.14-9.85L88.14-9.85Q85.29-11.3 83.99-12.8 82.69-14.3 82.69-16.1L82.69-16.1Q82.69-18.15 83.89-19.75 85.09-21.35 87.19-22.28 89.29-23.2 91.89-23.2L91.89-23.2Q93.94-23.2 95.42-22.8 96.89-22.4 96.89-22.4L96.89-22.4 96.99-22.15Q96.99-22.15 96.82-21.3 96.64-20.45 96.42-19.07 96.19-17.7 96.04-16.05L96.04-16.05 94.19-15.9Q94.19-15.9 94.24-16.45 94.29-17 94.29-17.35L94.29-17.35Q94.29-19.15 93.32-19.98 92.34-20.8 90.19-20.8L90.19-20.8Q88.49-20.8 87.32-20 86.14-19.2 86.14-18.05L86.14-18.05Q86.14-16.85 87.17-15.8 88.19-14.75 90.49-13.55L90.49-13.55Q93.19-12.15 94.72-11.03 96.24-9.9 96.87-8.85 97.49-7.8 97.49-6.55L97.49-6.55Q97.49-4.65 96.22-3 94.94-1.35 92.87-0.38 90.79 0.6 88.34 0.6ZM112.14 0.6L112.14 0.6Q108.99 0.6 106.64-0.78 104.29-2.15 102.99-4.63 101.69-7.1 101.69-10.45L101.69-10.45Q101.69-14.05 103.22-16.93 104.74-19.8 107.37-21.5 109.99-23.2 113.24-23.2L113.24-23.2Q114.84-23.2 116.17-22.98 117.49-22.75 118.29-22.5 119.09-22.25 119.09-22.25L119.09-22.25 119.24-21.9Q119.24-21.9 119.02-21 118.79-20.1 118.54-18.53 118.29-16.95 118.19-15L118.19-15 116.14-14.85 116.14-16.4Q116.14-18.25 115.02-19.38 113.89-20.5 112.04-20.5L112.04-20.5Q108.99-20.5 107.34-18.32 105.69-16.15 105.69-12.15L105.69-12.15Q105.69-7.8 107.52-5.28 109.34-2.75 112.49-2.75L112.49-2.75Q113.89-2.75 115.19-3.18 116.49-3.6 117.32-4 118.14-4.4 118.14-4.4L118.14-4.4 118.44-4.3 118.99-2.75Q118.99-2.75 118.29-2.25 117.59-1.75 116.49-1.07 115.39-0.4 114.22 0.1 113.04 0.6 112.14 0.6ZM123.79 0.2L124.04-1.8Q125.54-1.95 126.04-2.78 126.54-3.6 126.54-5.95L126.54-5.95 126.54-16.95Q126.54-18.6 126.09-19.3 125.64-20 124.64-20L124.64-20Q124.24-20 123.91-19.93 123.59-19.85 123.59-19.85L123.59-19.85 123.34-20.2 123.49-21.75Q125.04-22.05 126.59-22.4 128.14-22.75 129.19-23 130.24-23.25 130.24-23.25L130.24-23.25 130.59-22.95Q130.59-22.95 130.46-22.15 130.34-21.35 130.24-20.18 130.14-19 130.14-17.8L130.14-17.8 130.34-17.65Q131.89-20 133.89-21.5 135.89-23 137.39-23L137.39-23Q138.24-23 138.59-22.9 138.94-22.8 138.94-22.8L138.94-22.8 139.09-22.6Q139.09-22.6 138.99-21.93 138.89-21.25 138.74-20.18 138.59-19.1 138.46-17.85 138.34-16.6 138.29-15.45L138.29-15.45 136.34-15.3Q136.34-17.35 136.09-18.03 135.84-18.7 134.99-18.7L134.99-18.7Q133.89-18.7 132.64-17.8 131.39-16.9 130.34-15.3L130.34-15.3Q130.34-15.3 130.29-14.38 130.24-13.45 130.19-12.05 130.14-10.65 130.09-9.18 130.04-7.7 129.99-6.58 129.94-5.45 129.94-5.1L129.94-5.1Q129.94-3.4 130.44-2.8 130.94-2.2 132.34-2.2L132.34-2.2Q132.89-2.2 133.71-2.25 134.54-2.3 134.54-2.3L134.54-2.3 134.59-2.1 134.14 0.1Q134.14 0.1 133.64 0.08 133.14 0.05 132.34 0.05 131.54 0.05 130.66 0.03 129.79 0 129.04 0L129.04 0Q127.59 0 126.39 0.05 125.19 0.1 124.49 0.15 123.79 0.2 123.79 0.2L123.79 0.2ZM142.44 0.6L142.44 0.6 142.64-1.45Q144.14-1.85 144.79-2.63 145.44-3.4 145.44-4.7L145.44-4.7 145.44-17.4Q145.44-18.8 144.99-19.45 144.54-20.1 143.59-20.1L143.59-20.1Q143.19-20.1 142.76-20 142.34-19.9 142.34-19.9L142.34-19.9 142.54-21.75Q143.79-21.95 145.06-22.2 146.34-22.45 147.39-22.68 148.44-22.9 149.09-23.05 149.74-23.2 149.74-23.2L149.74-23.2 149.99-22.6Q149.79-22.1 149.56-20.38 149.34-18.65 149.19-16.18 149.04-13.7 148.94-10.78 148.84-7.85 148.84-4.9L148.84-4.9Q148.84-3.45 149.24-2.78 149.64-2.1 150.59-2.1L150.59-2.1Q151.04-2.1 151.69-2.15 152.34-2.2 152.34-2.2L152.34-2.2 152.44-2 152.04 0.15Q152.04 0.15 151.61 0.13 151.19 0.1 150.51 0.08 149.84 0.05 149.06 0.03 148.29 0 147.59 0L147.59 0Q146.54 0 145.34 0.15 144.14 0.3 143.29 0.45 142.44 0.6 142.44 0.6ZM146.84-29.1L146.84-29.1Q145.59-29.1 144.99-29.9 144.39-30.7 144.39-31.65L144.39-31.65Q144.39-32.85 145.24-33.73 146.09-34.6 147.34-34.6L147.34-34.6Q148.54-34.6 149.16-33.83 149.79-33.05 149.79-32.05L149.79-32.05Q149.79-30.85 148.96-29.98 148.14-29.1 146.84-29.1ZM165.48 0.6L165.48 0.6Q163.83 0.6 162.36 0.45 160.88 0.3 159.96 0.15 159.03 0 159.03 0L159.03 0 158.58-0.4 158.58-31.3Q158.58-32.7 158.13-33.35 157.68-34 156.73-34L156.73-34Q156.33-34 155.98-33.93 155.63-33.85 155.63-33.85L155.63-33.85 155.48-34 155.68-35.65Q156.98-35.8 158.28-36.05 159.58-36.3 160.68-36.55 161.78-36.8 162.43-36.95 163.08-37.1 163.08-37.1L163.08-37.1 163.38-36.45Q163.18-36.1 162.96-33.9 162.73-31.7 162.56-28.05 162.38-24.4 162.23-19.7L162.23-19.7Q164.53-21.35 166.16-22.28 167.78-23.2 168.28-23.2L168.28-23.2Q171.13-23.2 173.31-21.85 175.48-20.5 176.71-18.1 177.93-15.7 177.93-12.5L177.93-12.5Q177.93-8.85 176.26-5.88 174.58-2.9 171.76-1.15 168.93 0.6 165.48 0.6ZM166.88-2.15L166.88-2.15Q170.23-2.15 172.16-4.42 174.08-6.7 174.08-10.65L174.08-10.65Q174.08-13.2 173.21-15.28 172.33-17.35 170.83-18.57 169.33-19.8 167.48-19.8L167.48-19.8Q166.48-19.8 164.96-19.03 163.43-18.25 162.13-17.1L162.13-17.1 161.98-3.2Q162.88-2.75 164.28-2.45 165.68-2.15 166.88-2.15ZM192.03 0.6L192.03 0.6Q188.88 0.6 186.53-0.8 184.18-2.2 182.86-4.67 181.53-7.15 181.53-10.45L181.53-10.45Q181.53-13 182.41-15.3 183.28-17.6 184.83-19.38 186.38-21.15 188.36-22.18 190.33-23.2 192.58-23.2L192.58-23.2Q200.03-23.2 200.03-15.95L200.03-15.95Q200.03-15.3 199.93-14.6 199.83-13.9 199.73-13.5L199.73-13.5 199.08-12.9 185.28-12.9Q185.23-8.45 186.91-5.88 188.58-3.3 191.63-2.88 194.68-2.45 198.83-4.35L198.83-4.35 199.13-4.25 199.68-2.8Q198.68-2.1 197.31-1.3 195.93-0.5 194.53 0.05 193.13 0.6 192.03 0.6ZM185.48-14.75L185.48-14.75 194.53-15.2Q195.28-15.3 195.53-15.55 195.78-15.8 195.78-16.55L195.78-16.55Q195.78-18.55 194.71-19.6 193.63-20.65 191.63-20.65L191.63-20.65Q189.33-20.65 187.63-19.07 185.93-17.5 185.48-14.75ZM218.73 0.5L218.73 0.5 218.58 0.15 218.78-1.8Q220.53-1.95 221.48-2.15 222.43-2.35 222.83-2.73 223.23-3.1 223.23-3.7L223.23-3.7Q223.23-4.2 223.13-4.8 223.03-5.4 222.78-6.1L222.78-6.1 221.13-11.55Q220.23-11.6 218.6-11.6 216.98-11.6 215.93-11.6L215.93-11.6Q214.48-11.6 212.9-11.45 211.33-11.3 210.48-11.2L210.48-11.2 208.63-6Q208.18-4.65 208.18-4.05L208.18-4.05Q208.18-2.95 208.9-2.48 209.63-2 211.18-2L211.18-2 214.03-2 214.13-1.8 213.83 0.35Q213.83 0.35 212.78 0.25 211.73 0.15 210.13 0.08 208.53 0 206.88 0L206.88 0Q205.68 0 204.4 0.03 203.13 0.05 202.25 0.1 201.38 0.15 201.38 0.15L201.38 0.15 201.78-2.2Q203.18-2.35 204.03-3.15 204.88-3.95 205.68-6.05L205.68-6.05 215.43-31.6 218.58-32.45 218.98-32.45Q218.98-32.45 219.3-31.28 219.63-30.1 220.2-28.03 220.78-25.95 221.55-23.28 222.33-20.6 223.2-17.6 224.08-14.6 225.03-11.53 225.98-8.45 226.93-5.65L226.93-5.65Q227.53-3.8 228.55-3.05 229.58-2.3 231.73-2.1L231.73-2.1 231.83-1.9 231.48 0.15Q231.48 0.15 230.5 0.1 229.53 0.05 228.28 0.03 227.03 0 226.18 0L226.18 0Q224.28 0 222.55 0.13 220.83 0.25 219.78 0.38 218.73 0.5 218.73 0.5ZM216.13-27L211.38-13.65 215.78-13.65Q216.78-13.65 218.18-13.75 219.58-13.85 220.43-13.9L220.43-13.9 216.48-27 216.13-27ZM234.13 0.6L234.13 0.6 234.43-1.7Q236.78-2.15 237.6-3.03 238.43-3.9 238.43-6L238.43-6 238.48-27Q238.48-28.6 238.1-29.15 237.73-29.7 236.63-29.7L236.63-29.7Q236.28-29.7 235.65-29.68 235.03-29.65 234.53-29.6L234.53-29.6 234.43-29.8 234.78-32Q236.08-31.95 237.85-31.9 239.63-31.85 240.73-31.85L240.73-31.85Q241.78-31.85 243.4-31.98 245.03-32.1 246.48-32.3L246.48-32.3 246.28-30.05Q244.23-29.8 243.5-29.23 242.78-28.65 242.68-27.2L242.68-27.2Q242.53-24.45 242.4-21.35 242.28-18.25 242.18-15.23 242.08-12.2 242.03-9.68 241.98-7.15 241.98-5.6L241.98-5.6Q241.98-3.6 242.43-2.9 242.88-2.2 244.18-2.2L244.18-2.2Q244.88-2.2 245.63-2.25 246.38-2.3 246.83-2.35L246.83-2.35 246.93-2.15 246.48 0.15Q245.58 0.1 244.38 0.08 243.18 0.05 241.98 0.03 240.78 0 239.93 0L239.93 0Q238.83 0 237.2 0.18 235.58 0.35 234.13 0.6Z" fill="#000000" data-fill-palette-color="primary"></path></g></svg></g></svg></g></svg></g></svg></g><g transform="matrix(1,0,0,1,410.08431147876695,0)"><svg viewBox="0 0 99.62031314517455 85.260163945746" height="85.260163945746" width="99.62031314517455"><g><svg xmlns="http://www.w3.org/2000/svg" xmlns:xlink="http://www.w3.org/1999/xlink" version="1.1" x="0" y="0" viewBox="0.499741564244382 0.18101534988859908 111.00058669431013 94.99998465011141" enable-background="new 0 0 111 95" xml:space="preserve" width="99.62031314517455" height="85.260163945746" class="icon-icon-0" data-fill-palette-color="accent" id="icon-0"><g fill="#1e88e5" data-fill-palette-color="accent"><g fill="#1e88e5" data-fill-palette-color="accent"><path fill="#000000" d="M104.343 59.979h-0.009c4.685-6.157 7.313-13.35 7.16-20.989C111.063 17.007 87.805-0.362 59.553 0.194 31.301 0.749 8.751 19.021 9.183 40.999c0.008 0.403 0.023 0.804 0.048 1.204l1.382-0.889c-0.006-0.122 7.458-3.969 7.458-4.091 0-15.986 23.184-31.354 41.478-31.354 16.493 0 44.731 9.461 44.731 33.198-0.001 7.173-4.12 14.362-8.574 20.141-3.728 5.777 0.721 18.79 0.721 18.79l-14.634-7.79c-3.827 1.192-9.75 1.75-11.375 2.209-1.959 4.583-5.001 7.155-5.001 7.155 5.152-0.36 9.128-1.237 13.731-2.69l25.925 11.143C105.072 88.024 96.293 70.293 104.343 59.979zM35.457 36.076C16.445 35.702 0.795 47.391 0.504 62.185c-0.103 5.14 1.667 9.98 4.817 14.123H5.316c5.416 6.94-0.491 18.873-0.491 18.873l17.446-7.498c3.76 1.187 7.846 1.876 12.127 1.961 19.012 0.374 34.662-11.314 34.954-26.108C69.644 48.745 54.469 36.45 35.457 36.076z" data-fill-palette-color="accent"></path></g></g></svg></g></svg></g></svg></g><defs></defs></svg><rect width="395.52" height="66.16008255507103" fill="none" stroke="none" visibility="hidden"></rect></g></svg></g></svg>