<svg class="svg-icon" style="width: 1em; height: 1em;vertical-align: middle;fill: currentColor;overflow: hidden;" viewBox="0 0 1024 1024" version="1.1" xmlns="http://www.w3.org/2000/svg"><path d="M512.098 512.711m-447.885 0a447.885 447.885 0 1 0 895.77 0 447.885 447.885 0 1 0-895.77 0Z" fill="#77B3D4" /><path d="M792.026 512.711c0-139.141-125.328-251.936-279.928-251.936S232.169 373.57 232.169 512.711c0 133.93 116.209 243.142 262.781 251.156 9.633 51.121 17.148 84.758 17.148 84.758s70.614-42.606 134.911-115.195c86.425-42.883 145.017-125.619 145.017-220.719z" fill="#231F20" /><path d="M750.037 467.922c0 209.425-237.939 352.71-237.939 352.71s-131.41-587.85 0-587.85 237.939 105.276 237.939 235.14z" fill="#FFFFFF" /><path d="M232.17 484.718a279.928 251.936 0 1 0 559.856 0 279.928 251.936 0 1 0-559.856 0Z" fill="#FFFFFF" /><path d="M512.098 484.718m-27.993 0a27.993 27.993 0 1 0 55.986 0 27.993 27.993 0 1 0-55.986 0Z" fill="#4F5D73" /><path d="M624.069 484.718m-27.993 0a27.993 27.993 0 1 0 55.986 0 27.993 27.993 0 1 0-55.986 0Z" fill="#4F5D73" /><path d="M400.126 484.718m-27.993 0a27.993 27.993 0 1 0 55.986 0 27.993 27.993 0 1 0-55.986 0Z" fill="#4F5D73" /></svg>